<?xml version="1.0" standalone="no"?>
<!DOCTYPE svg PUBLIC "-//W3C//DTD SVG 20010904//EN"
 "http://www.w3.org/TR/2001/REC-SVG-20010904/DTD/svg10.dtd">
<svg version="1.0" xmlns="http://www.w3.org/2000/svg"
 width="512.000000pt" height="512.000000pt" viewBox="0 0 512.000000 512.000000"
 preserveAspectRatio="xMidYMid meet">

<g transform="translate(0.000000,512.000000) scale(0.100000,-0.100000)"
fill="#000000" stroke="none">
<path d="M400 4400 l0 -640 -56 0 c-31 0 -75 -5 -98 -12 -55 -16 -138 -99
-154 -154 -17 -60 -17 -2328 0 -2388 16 -55 99 -138 154 -154 28 -8 126 -12
300 -12 l259 0 47 -64 c56 -78 138 -145 235 -192 125 -61 155 -64 681 -64
l472 0 0 -320 0 -320 80 0 80 0 0 560 0 560 -144 0 c-118 0 -147 3 -160 16 -9
8 -16 22 -16 29 0 14 411 706 438 738 8 9 27 17 42 17 15 0 34 -8 42 -17 27
-32 438 -724 438 -738 0 -7 -7 -21 -16 -29 -13 -13 -42 -16 -160 -16 l-144 0
0 -560 0 -560 80 0 80 0 0 320 0 320 548 0 c594 0 605 1 714 56 74 38 161 124
200 200 l33 64 229 0 c150 0 243 4 270 12 55 16 138 99 154 154 17 60 17 2648
0 2708 -16 55 -99 138 -154 154 -23 7 -67 12 -98 12 l-56 0 0 320 0 320 -160
0 -160 0 0 160 0 160 -2000 0 -2000 0 0 -640z m3840 400 l0 -80 -1760 0 -1760
0 0 -480 0 -480 -80 0 -80 0 0 560 0 560 1840 0 1840 0 0 -80z m320 -480 l0
-240 -488 0 c-545 0 -547 0 -616 -67 -22 -22 -61 -82 -92 -145 l-54 -108
-1215 0 -1215 0 0 400 0 400 1840 0 1840 0 0 -240z m295 -425 c25 -24 25 -24
25 -240 l0 -215 -2320 0 -2320 0 0 55 c0 46 4 60 25 80 l24 25 1560 0 1561 0
75 149 c41 83 82 154 92 160 12 7 229 10 636 11 l618 0 24 -25z m25 -1630 l0
-1016 -25 -24 c-24 -25 -24 -25 -237 -25 l-214 0 -10 69 c-30 188 -173 348
-354 394 l-52 14 -29 89 c-66 206 -218 380 -412 473 -127 61 -199 76 -363 76
l-141 0 -73 68 c-476 440 -1245 290 -1515 -295 l-40 -87 -60 -1 c-359 -3 -654
-316 -632 -670 3 -47 9 -95 13 -107 l6 -23 -226 0 -227 0 -24 25 -25 24 0
1016 0 1015 2320 0 2320 0 0 -1015z m-2418 201 c179 -35 284 -92 427 -234
l103 -103 75 16 c219 45 425 -17 584 -175 58 -58 86 -95 118 -160 40 -82 70
-192 71 -256 l0 -31 83 -5 c133 -9 219 -61 278 -170 31 -58 34 -70 34 -148 0
-78 -3 -90 -34 -148 -38 -70 -69 -100 -145 -140 l-51 -27 -562 -3 -563 -3 0
81 0 80 78 0 c87 0 140 19 184 66 61 65 73 147 34 229 -13 28 -121 210 -238
405 -252 418 -250 415 -378 415 -129 0 -126 2 -378 -415 -118 -195 -225 -377
-238 -405 -28 -60 -30 -116 -5 -170 40 -86 110 -125 226 -125 l75 0 0 -80 0
-80 -468 0 c-382 0 -478 3 -525 15 -258 67 -417 329 -352 578 47 180 193 320
372 358 54 11 148 8 229 -7 l30 -6 32 99 c42 127 97 217 190 315 186 195 456
283 714 234z"/>
<path d="M1040 4320 l0 -80 1520 0 1520 0 0 80 0 80 -1520 0 -1520 0 0 -80z"/>
<path d="M4240 4320 l0 -80 80 0 80 0 0 80 0 80 -80 0 -80 0 0 -80z"/>
<path d="M1040 4000 l0 -80 80 0 80 0 0 80 0 80 -80 0 -80 0 0 -80z"/>
<path d="M1360 4000 l0 -80 960 0 960 0 0 80 0 80 -960 0 -960 0 0 -80z"/>
<path d="M3600 3680 l0 -80 80 0 80 0 0 80 0 80 -80 0 -80 0 0 -80z"/>
<path d="M3920 3680 l0 -80 80 0 80 0 0 80 0 80 -80 0 -80 0 0 -80z"/>
<path d="M4240 3680 l0 -80 80 0 80 0 0 80 0 80 -80 0 -80 0 0 -80z"/>
<path d="M4560 3680 l0 -80 80 0 80 0 0 80 0 80 -80 0 -80 0 0 -80z"/>
</g>
</svg>
