<?xml version="1.0" standalone="no"?>
<!DOCTYPE svg PUBLIC "-//W3C//DTD SVG 20010904//EN"
 "http://www.w3.org/TR/2001/REC-SVG-20010904/DTD/svg10.dtd">
<svg version="1.0" xmlns="http://www.w3.org/2000/svg"
 width="1280.000000pt" height="720.000000pt" viewBox="0 0 1280.000000 720.000000"
 preserveAspectRatio="xMidYMid meet">
<metadata>
</metadata>
<g transform="translate(0.000000,720.000000) scale(0.100000,-0.100000)"
fill="#000000"  stroke="none">

<path d="M9364 4359 c-60 -10 -129 -38 -182 -74 -106 -72 -248 -247 -328 -407
l-34 -68 0 -1640 0 -1640 -85 0 -85 0 -2 317 -3 318 -147 3 -148 3 0 1059 c0
658 -4 1060 -9 1060 -6 0 -131 -43 -278 -96 -147 -53 -287 -103 -310 -111
l-43 -15 0 -949 0 -949 -85 0 -85 0 0 265 0 265 -242 2 -243 3 -3 228 -2 227
-325 0 -325 0 0 -695 0 -695 -100 0 -100 0 0 285 0 285 -255 0 -255 0 0 -405
0 -405 -75 0 -75 0 0 753 0 752 -113 57 c-61 32 -190 98 -286 148 -96 49 -175
90 -177 90 -2 0 -4 -405 -4 -900 l0 -900 -60 0 -60 0 0 900 c0 495 -2 900 -5
900 -3 0 -140 -68 -305 -150 l-300 -150 0 -750 0 -750 -25 0 -25 0 0 555 0
555 -75 0 -75 0 0 355 0 355 -243 0 -244 0 -6 -532 c-4 -293 -7 -669 -7 -835
l0 -303 -75 0 -75 0 0 630 0 630 -320 0 -320 0 0 -705 0 -705 -50 0 -50 0 0
555 0 555 -115 0 -115 0 0 643 0 642 -69 -3 -69 -4 -37 57 c-63 94 -146 138
-260 137 -105 -1 -197 -55 -252 -149 l-26 -44 -71 2 -71 2 -3 -1196 -2 -1197
-60 0 -60 0 0 555 0 555 -40 0 -40 0 0 75 0 75 -240 0 -240 0 0 -75 0 -75 -40
0 -40 0 0 -555 0 -555 -75 0 -75 0 -2 1106 -3 1106 -153 89 c-85 49 -159 89
-165 88 -7 0 -79 -40 -162 -88 l-150 -87 -3 -1372 -2 -1372 6400 0 6400 0 0
1015 0 1015 -145 0 -145 0 0 405 0 405 -430 0 -430 0 0 -625 0 -625 -100 0
-100 0 0 -530 0 -530 -145 0 -145 0 0 1615 0 1615 -272 0 -273 -1 -152 -164
-153 -165 0 -1450 0 -1450 -145 0 -145 0 0 1645 0 1646 -31 62 c-121 242 -331
447 -484 472 -77 12 -90 13 -141 4z"/>

</g>
</svg>
