<?xml version="1.0" standalone="no"?>
<!DOCTYPE svg PUBLIC "-//W3C//DTD SVG 20010904//EN"
 "http://www.w3.org/TR/2001/REC-SVG-20010904/DTD/svg10.dtd">
<svg version="1.0" xmlns="http://www.w3.org/2000/svg"
 width="512.000000pt" height="512.000000pt" viewBox="0 0 512.000000 512.000000"
 preserveAspectRatio="xMidYMid meet">

<g transform="translate(0.000000,512.000000) scale(0.100000,-0.100000)"
fill="#000000" stroke="none">
<path d="M1003 4995 c-156 -42 -275 -153 -335 -311 l-23 -59 0 -2065 0 -2065
23 -59 c60 -160 180 -270 339 -311 49 -13 242 -15 1400 -15 941 0 1358 3 1395
11 162 34 307 165 359 324 10 30 14 175 19 570 l5 530 127 0 c109 0 130 3 145
18 17 17 18 51 19 507 0 342 -3 497 -10 513 -11 21 -18 22 -149 25 l-137 3 0
592 0 592 -608 607 -607 608 -955 -1 c-789 0 -964 -3 -1007 -14z m1887 -662
c0 -522 2 -578 17 -595 15 -17 47 -18 595 -18 l578 0 0 -555 0 -555 -842 0
c-769 0 -843 -1 -860 -17 -17 -15 -18 -44 -18 -510 0 -322 4 -501 10 -514 10
-19 31 -19 861 -19 l850 0 -3 -528 -3 -527 -31 -65 c-39 -83 -101 -145 -184
-184 l-65 -31 -1359 -3 c-1221 -2 -1365 -1 -1415 14 -145 41 -246 155 -271
305 -14 88 -14 3970 0 4058 24 146 120 257 259 302 52 17 120 18 969 18 l912
1 0 -577z m610 -8 l505 -505 -508 0 -507 0 0 505 c0 278 1 505 3 505 1 0 229
-227 507 -505z m880 -2245 l0 -430 -960 0 -960 0 0 430 0 430 960 0 960 0 0
-430z"/>
<path d="M3820 2311 c-151 -32 -223 -211 -146 -360 21 -39 77 -87 122 -101 59
-20 161 -8 225 26 l54 29 3 93 3 92 -106 0 -105 0 0 -35 0 -35 55 0 55 0 0
-33 c0 -28 -5 -36 -35 -50 -114 -54 -213 26 -203 163 3 46 10 66 29 86 57 63
140 67 186 9 24 -31 28 -32 67 -23 22 5 42 11 44 13 11 10 -45 85 -77 103 -42
24 -120 34 -171 23z"/>
<path d="M2940 2080 l0 -230 45 0 45 0 0 230 0 230 -45 0 -45 0 0 -230z"/>
<path d="M3120 2080 l0 -230 45 0 45 0 1 168 1 167 42 -165 42 -165 47 -3 c43
-3 47 -1 53 25 4 15 24 93 45 173 l37 145 1 -172 1 -173 45 0 45 0 0 230 0
231 -72 -3 -72 -3 -37 -143 c-21 -79 -39 -148 -41 -154 -3 -7 -17 35 -32 93
-15 57 -34 128 -42 157 l-15 52 -70 0 -69 0 0 -230z"/>
<path d="M2760 1890 l0 -40 45 0 45 0 0 40 0 40 -45 0 -45 0 0 -40z"/>
</g>
</svg>
