<?xml version="1.0" encoding="utf-8"?>
<!-- Generator: Adobe Illustrator 24.3.0, SVG Export Plug-In . SVG Version: 6.00 Build 0)  -->
<svg version="1.1" id="Capa_1" xmlns="http://www.w3.org/2000/svg" xmlns:xlink="http://www.w3.org/1999/xlink" x="0px" y="0px"
	 viewBox="0 0 975 446" style="enable-background:new 0 0 975 446;" xml:space="preserve">
<style type="text/css">
	.st0{fill:url(#SVGID_1_);}
	.st1{fill:url(#SVGID_2_);}
	.st2{fill:url(#SVGID_3_);}
	.st3{fill:url(#SVGID_4_);}
	.st4{fill:url(#SVGID_5_);}
	.st5{fill:url(#SVGID_6_);}
	.st6{fill:url(#SVGID_7_);}
	.st7{fill:url(#SVGID_8_);}
	.st8{fill:url(#SVGID_9_);}
	.st9{fill:url(#SVGID_10_);}
	.st10{fill:url(#SVGID_11_);}
	.st11{fill:url(#SVGID_12_);}
</style>
<g>
	<linearGradient id="SVGID_1_" gradientUnits="userSpaceOnUse" x1="917.6909" y1="-9.603" x2="819.1553" y2="293.5834">
		<stop  offset="0" style="stop-color:#fff"/>
		<stop  offset="1" style="stop-color:#fff"/>
	</linearGradient>
	<path class="st0" d="M917.1,54.3h-24.7c-19.4,0-35.2,15.7-35.2,35.2v10.4c0,7.9,6.4,14.3,14.3,14.3H882c19.4,0,35.2-15.7,35.2-35.2
		V54.3L917.1,54.3z"/>
	<g>
		<linearGradient id="SVGID_2_" gradientUnits="userSpaceOnUse" x1="447.1325" y1="362.906" x2="474.3028" y2="217.351">
			<stop  offset="0" style="stop-color:#fff"/>
			<stop  offset="1" style="stop-color:#fff"/>
		</linearGradient>
		<path class="st1" d="M481.6,293.8h-13.9c-12.7,0-23-10.3-23-23V160.3c0-12.7,10.3-23,23-23h13.9c12.7,0,23,10.3,23,23v110.5
			C504.6,283.5,494.3,293.8,481.6,293.8z"/>
		<linearGradient id="SVGID_3_" gradientUnits="userSpaceOnUse" x1="286.4268" y1="25.7506" x2="469.9951" y2="302.3778">
			<stop  offset="0" style="stop-color:#fff"/>
			<stop  offset="1" style="stop-color:#fff"/>
		</linearGradient>
		<path class="st2" d="M384.8,54.3c-66.1,0-119.8,53.6-119.8,119.8c0,66.1,53.6,119.8,119.8,119.8c66.1,0,119.8-53.6,119.8-119.8
			C504.6,107.9,451,54.3,384.8,54.3z M384.8,233.9c-33.1,0-59.9-26.8-59.9-59.9c0-33.1,26.8-59.9,59.9-59.9
			c33.1,0,59.9,26.8,59.9,59.9C444.7,207.1,417.9,233.9,384.8,233.9z"/>
	</g>
	<linearGradient id="SVGID_4_" gradientUnits="userSpaceOnUse" x1="963.5964" y1="-29.0172" x2="845.1085" y2="335.5609">
		<stop  offset="0" style="stop-color:#fff"/>
		<stop  offset="1" style="stop-color:#fff"/>
	</linearGradient>
	<path class="st3" d="M894,293.8h-13.9c-12.7,0-23-10.3-23-23V142.4c0-12.7,10.3-23,23-23H894c12.7,0,23,10.3,23,23v128.4
		C917,283.5,906.7,293.8,894,293.8z"/>
	<g>
		<linearGradient id="SVGID_5_" gradientUnits="userSpaceOnUse" x1="112.4713" y1="447.5271" x2="261.6205" y2="23.0254">
			<stop  offset="0" style="stop-color:#fff"/>
			<stop  offset="1" style="stop-color:#fff"/>
		</linearGradient>
		<path class="st4" d="M248.2,124.2h-48c-3.3,0-5.9,2.6-5.9,5.9v163.7c-0.1,21-17.1,37.9-38,37.9c-15.1,0-28.1-8.8-34.3-21.5
			c-4.8-9.9-14.5-16.5-25.5-16.5h-2.8c-21,0-35.3,21.7-26.6,40.8c15.5,33.8,49.6,57.3,89.2,57.3c52.7,0,95.5-41.5,97.8-93.6
			c0.1-0.4,0.1-0.7,0.1-1.1v-167C254.2,126.9,251.5,124.2,248.2,124.2z"/>
		<g>
			<linearGradient id="SVGID_6_" gradientUnits="userSpaceOnUse" x1="363.4189" y1="300.007" x2="-1.1682" y2="50.1502">
				<stop  offset="0" style="stop-color:#fff"/>
				<stop  offset="1" style="stop-color:#fff"/>
			</linearGradient>
			<path class="st5" d="M224.2,54.3L224.2,54.3c-16.5,0-29.9,13.4-29.9,29.9v111.5h-0.2c0,21-17,38-38,38c-21,0-38-17-38-38H58
				c0,54.2,43.9,98.1,98.1,98.1c50.2,0,91.6-37.8,97.4-86.5h0.7V84.2C254.2,67.7,240.8,54.3,224.2,54.3z"/>
			<linearGradient id="SVGID_7_" gradientUnits="userSpaceOnUse" x1="53.9947" y1="39.357" x2="131.2918" y2="307.9961">
				<stop  offset="0" style="stop-color:#fff"/>
				<stop  offset="1" style="stop-color:#fff"/>
			</linearGradient>
			<path class="st6" d="M118,195.7l-0.2-87.1c0-0.4,0.1-0.7,0.1-1.1c0-0.4,0-0.8-0.1-1.2l0-1.2l-0.1,0
				c-1.2-15.4-14.1-27.6-29.8-27.6c-16.6,0-30,13.4-30,30c0,0,0,0.1,0,0.1l0,0v88.1c-3,52.1,48.7,100,98.1,98.1
				C104.5,294.1,118,195.7,118,195.7z"/>
		</g>
	</g>
	<g>
		<linearGradient id="SVGID_8_" gradientUnits="userSpaceOnUse" x1="812.0033" y1="349.8568" x2="817.7577" y2="188.7341">
			<stop  offset="0" style="stop-color:#fff"/>
			<stop  offset="1" style="stop-color:#fff"/>
		</linearGradient>
		<path class="st7" d="M823.8,293.5h-13.9c-12.7,0-23-10.3-23-23V160.1c0-12.7,10.3-23,23-23h13.9c12.7,0,23,10.3,23,23v110.5
			C846.7,283.3,836.5,293.5,823.8,293.5z"/>
		<g>
			<g>
				<linearGradient id="SVGID_9_" gradientUnits="userSpaceOnUse" x1="929.7602" y1="45.0226" x2="676.3434" y2="285.0514">
					<stop  offset="0" style="stop-color:#fff"/>
					<stop  offset="1" style="stop-color:#fff"/>
				</linearGradient>
				<path class="st8" d="M846.7,102.3c-0.2-16.3-13.5-29.5-29.9-29.5c-16.4,0-29.7,13.2-29.9,29.5h0v93.2h-0.2c0,21-17,38-38,38
					c-21,0-38-17-38-38h-60.1c0,54.2,43.9,98.1,98.1,98.1c51.1,0,93.1-39.1,97.7-89h0.4L846.7,102.3L846.7,102.3z"/>
			</g>
			<g>
				<linearGradient id="SVGID_10_" gradientUnits="userSpaceOnUse" x1="711.939" y1="129.448" x2="552.2729" y2="270.9485">
					<stop  offset="0" style="stop-color:#fff"/>
					<stop  offset="1" style="stop-color:#fff"/>
				</linearGradient>
				<path class="st9" d="M650.6,195.5c0,21-17,38-38,38c-21,0-38-17-38-38h-60.1c0,54.2,43.9,98.1,98.1,98.1s98.1-43.9,98.1-98.1
					H650.6z"/>
			</g>
		</g>
	</g>
	<linearGradient id="SVGID_11_" gradientUnits="userSpaceOnUse" x1="514.4598" y1="202.6618" x2="612.6763" y2="202.6618">
		<stop  offset="0" style="stop-color:#fff"/>
		<stop  offset="1" style="stop-color:#fff"/>
	</linearGradient>
	<path class="st10" d="M574.6,194.4l-0.2-52.1h0c0-0.2,0-0.4,0-0.6c0-16.5-13.4-30-30-30c-16.5,0-30,13.4-30,30c0,0.2,0,0.4,0,0.6h0
		v52.1c-3,52.6,45.6,101.4,98.1,99.1C561.1,293.8,574.6,194.4,574.6,194.4z"/>
	<linearGradient id="SVGID_12_" gradientUnits="userSpaceOnUse" x1="773.5491" y1="127.2316" x2="679.3258" y2="223.0888">
		<stop  offset="0" style="stop-color:#fff"/>
		<stop  offset="1" style="stop-color:#fff"/>
	</linearGradient>
	<path class="st11" d="M710.9,194.4l-0.2-69.9c0-0.5,0.1-0.9,0.1-1.4c0-16.6-13.4-30-30-30c-16.4,0-29.6,13.1-29.9,29.4h0v71.9
		c-3,52.6,44.6,101.4,98.1,99.1C697.4,293.8,710.9,194.4,710.9,194.4z"/>
</g>
</svg>
